<?xml version="1.0" encoding="utf-8"?>
<!-- Generator: Adobe Illustrator 28.2.0, SVG Export Plug-In . SVG Version: 6.00 Build 0)  -->
<svg version="1.1" id="Camada_1" xmlns="http://www.w3.org/2000/svg" xmlns:xlink="http://www.w3.org/1999/xlink" x="0px" y="0px"
	 viewBox="0 0 466.8 392.5" style="enable-background:new 0 0 466.8 392.5;" xml:space="preserve">
<style type="text/css">
	.st0{fill:#035C36;}
	.st1{fill:#F19429;}
</style>
<g>
	<g>
		<g>
			<path class="st0" d="M352.4,119.4c0.3,23.2-8.7,44.4-20.7,64.5c-17.4,29.3-38.5,55.9-60.1,82.2c-8.7,10.6-17.7,20.8-26.5,31.2
				c-0.6,0.8-1.3,1.5-2,2.3c-6.9,7.5-13,7.5-19.7-0.4c-12.2-14.4-24.5-28.6-36.3-43.2c-18.6-22.9-36.7-46.2-51.7-71.6
				c-8.2-13.9-15.7-28.3-18.8-44.4c-6.7-35,1.4-66.6,22.9-94.5c17.2-22.4,40.5-36,67.8-42.3c39.6-9,74.7,1.3,105.1,27.2
				c20.9,17.8,33.3,40.9,38.3,67.9C352,105,352.7,111.8,352.4,119.4z M233.9,41c-41-1-80.7,32.9-80.5,79c0.1,42.4,36.8,78.1,80.2,78
				c43.3-0.1,79.6-36,79.7-78.6C313.3,73.4,273.4,39.8,233.9,41z"/>
			<path class="st0" d="M264.1,129.2c0-12,0.1-24,0-36c0-3.1,0.5-6.8-3.4-8c-3.6-1.1-6.5,1-8.6,3.8c-8.2,11.2-10.3,24-9.3,37.5
				c0.3,3.4,2.9,5.6,5.5,7.4c2.4,1.7,3.4,3.8,3.4,6.8c-0.2,10.5-0.3,21-0.2,31.5c0,4.1-1.7,5.9-5.6,6.7c-8.5,1.6-16.9,1.6-25.3,0.1
				c-3.3-0.6-5.1-2.1-5-5.6c0.1-11.8-0.2-23.6-1.1-35.4c-0.2-3.2,0.7-5.9,3.2-8c5-4.3,6.9-10,6.7-16.5c-0.1-6.7,0.1-13.3,0-20
				c0-2,0.5-5-2.7-4.9c-2.7,0.1-2.9,2.9-3,5c-0.1,5.8,0,11.7-0.1,17.5c0,2.5,0.1,5.6-3.4,5.5c-3.1-0.1-3-3.1-3-5.4
				c-0.1-6,0-12-0.1-18c0-2.2-0.1-4.9-3.1-4.8c-2.7,0.1-2.4,2.7-2.5,4.7c-0.1,6,0,12-0.1,18c0,2.4-0.3,5.3-3.2,5.4
				c-3.3,0.1-3.7-2.9-3.7-5.4c-0.1-6-0.1-12-0.1-18c0-2,0.2-4.5-2.5-4.7c-3-0.2-3.1,2.5-3.1,4.7c-0.1,7.5-0.1,15,0.1,22.5
				c0.2,5.7,2,10.8,6.5,14.7c2.9,2.5,3.6,5.8,3.4,9.5c-0.4,8.8-0.7,17.6-1,26.4c-0.1,1.5,0.4,3.3-1.1,4.2c-1.8,1.1-3.1-0.6-4.4-1.5
				c-24-16.4-32.5-48.6-19.9-75c18.4-38.5,70.9-47.3,100.8-16.8c26.2,26.7,21.7,71.1-9.2,92.1c-1.2,0.8-2.3,2.4-3.9,1.3
				c-1.3-0.8-0.7-2.4-0.7-3.7C264.2,154.2,264.2,141.7,264.1,129.2C264.2,129.2,264.2,129.2,264.1,129.2z"/>
		</g>
	</g>
	<g>
		<path class="st1" d="M0,319.5h35.6v10h-25v13.6h22.5v10H10.6v22.4H0V319.5z"/>
		<path class="st1" d="M58.3,335.9c3,0,5.7,0.5,8.2,1.5c2.5,1,4.6,2.4,6.4,4.2c1.8,1.8,3.2,4,4.2,6.5c1,2.5,1.5,5.3,1.5,8.2
			s-0.5,5.7-1.5,8.2c-1,2.5-2.4,4.7-4.2,6.5s-3.9,3.2-6.4,4.2c-2.5,1-5.2,1.5-8.2,1.5c-3,0-5.7-0.5-8.2-1.5c-2.5-1-4.6-2.4-6.4-4.2
			s-3.2-4-4.2-6.5c-1-2.5-1.5-5.3-1.5-8.2s0.5-5.7,1.5-8.2c1-2.5,2.4-4.7,4.2-6.5c1.8-1.8,3.9-3.2,6.4-4.2
			C52.6,336.5,55.3,335.9,58.3,335.9z M58.3,367.4c1.3,0,2.6-0.2,3.8-0.7c1.2-0.5,2.3-1.2,3.3-2.2s1.7-2.1,2.2-3.4
			c0.5-1.4,0.8-2.9,0.8-4.6c0-1.7-0.3-3.3-0.8-4.6c-0.5-1.4-1.3-2.5-2.2-3.4s-2-1.7-3.3-2.2c-1.2-0.5-2.5-0.7-3.8-0.7
			c-1.4,0-2.6,0.2-3.8,0.7c-1.2,0.5-2.3,1.2-3.2,2.2s-1.7,2.1-2.2,3.4c-0.5,1.4-0.8,2.9-0.8,4.6c0,1.7,0.3,3.3,0.8,4.6
			c0.5,1.4,1.3,2.5,2.2,3.4s2,1.7,3.2,2.2C55.7,367.1,57,367.4,58.3,367.4z"/>
		<path class="st1" d="M103.5,335.9c3,0,5.7,0.5,8.2,1.5c2.5,1,4.6,2.4,6.4,4.2c1.8,1.8,3.2,4,4.2,6.5c1,2.5,1.5,5.3,1.5,8.2
			s-0.5,5.7-1.5,8.2c-1,2.5-2.4,4.7-4.2,6.5s-3.9,3.2-6.4,4.2c-2.5,1-5.2,1.5-8.2,1.5c-3,0-5.7-0.5-8.2-1.5c-2.5-1-4.6-2.4-6.4-4.2
			s-3.2-4-4.2-6.5c-1-2.5-1.5-5.3-1.5-8.2s0.5-5.7,1.5-8.2c1-2.5,2.4-4.7,4.2-6.5c1.8-1.8,3.9-3.2,6.4-4.2
			C97.7,336.5,100.5,335.9,103.5,335.9z M103.5,367.4c1.3,0,2.6-0.2,3.8-0.7c1.2-0.5,2.3-1.2,3.3-2.2s1.7-2.1,2.2-3.4
			c0.5-1.4,0.8-2.9,0.8-4.6c0-1.7-0.3-3.3-0.8-4.6c-0.5-1.4-1.3-2.5-2.2-3.4s-2-1.7-3.3-2.2c-1.2-0.5-2.5-0.7-3.8-0.7
			c-1.4,0-2.6,0.2-3.8,0.7c-1.2,0.5-2.3,1.2-3.2,2.2s-1.7,2.1-2.2,3.4c-0.5,1.4-0.8,2.9-0.8,4.6c0,1.7,0.3,3.3,0.8,4.6
			c0.5,1.4,1.3,2.5,2.2,3.4s2,1.7,3.2,2.2C100.8,367.1,102.1,367.4,103.5,367.4z"/>
		<path class="st1" d="M159,371h-0.6c-0.9,1.6-2.4,3-4.4,4.2c-2,1.1-4.4,1.7-7.4,1.7c-2.5,0-4.8-0.5-7-1.5c-2.2-1-4.2-2.4-5.9-4.2
			c-1.7-1.8-3-4-4-6.5c-1-2.5-1.5-5.3-1.5-8.2s0.5-5.7,1.5-8.2c1-2.5,2.3-4.7,4-6.5c1.7-1.8,3.7-3.2,5.9-4.2c2.2-1,4.6-1.5,7-1.5
			c2.9,0,5.4,0.6,7.4,1.7c2,1.2,3.4,2.5,4.4,4.2h0.6l-0.6-5.5v-16.9h10.3v56.1H159V371z M148.8,367.4c1.4,0,2.7-0.2,3.9-0.7
			c1.2-0.5,2.3-1.2,3.3-2.2c0.9-0.9,1.7-2.1,2.3-3.4c0.6-1.4,0.9-2.9,0.9-4.6c0-1.7-0.3-3.3-0.9-4.6c-0.6-1.4-1.3-2.5-2.3-3.4
			c-0.9-0.9-2-1.7-3.3-2.2c-1.2-0.5-2.5-0.7-3.9-0.7c-1.4,0-2.7,0.3-3.9,0.8c-1.2,0.5-2.3,1.3-3.3,2.2c-0.9,0.9-1.7,2.1-2.3,3.4
			c-0.6,1.4-0.9,2.9-0.9,4.5c0,1.7,0.3,3.2,0.9,4.5c0.6,1.4,1.3,2.5,2.3,3.4c0.9,0.9,2,1.7,3.3,2.2
			C146.1,367.1,147.4,367.4,148.8,367.4z"/>
		<path class="st0" d="M227.8,366.6c-2.8,3.3-6,5.9-9.8,7.6c-3.8,1.8-8,2.6-12.6,2.6c-4.2,0-8.1-0.8-11.6-2.3
			c-3.6-1.5-6.7-3.6-9.3-6.2c-2.6-2.6-4.7-5.7-6.2-9.3c-1.5-3.6-2.3-7.4-2.3-11.6c0-4.1,0.8-8,2.3-11.6c1.5-3.6,3.6-6.7,6.2-9.3
			c2.6-2.6,5.7-4.7,9.3-6.2c3.6-1.5,7.5-2.3,11.6-2.3c4.5,0,8.5,0.8,11.9,2.4s6.5,3.8,9.1,6.8l-7.4,7.2c-1.7-1.9-3.6-3.5-5.8-4.6
			c-2.2-1.1-4.7-1.7-7.7-1.7c-2.6,0-5.1,0.5-7.4,1.4c-2.3,0.9-4.3,2.2-6,3.9c-1.7,1.7-3,3.7-4,6.1c-1,2.4-1.5,5-1.5,8
			c0,2.9,0.5,5.6,1.5,8c1,2.4,2.3,4.4,4,6.1c1.7,1.7,3.7,3,6,3.9c2.3,0.9,4.8,1.4,7.4,1.4c3.1,0,5.9-0.6,8.3-1.9
			c2.4-1.3,4.6-3.1,6.5-5.4L227.8,366.6z"/>
		<path class="st0" d="M257.1,371.5h-0.6c-1.2,1.5-2.7,2.7-4.3,3.8c-1.7,1-3.9,1.6-6.5,1.6c-2,0-3.9-0.3-5.6-1
			c-1.8-0.7-3.3-1.6-4.6-2.7c-1.3-1.1-2.3-2.5-3.1-4.2c-0.7-1.6-1.1-3.4-1.1-5.3c0-2,0.4-3.8,1.2-5.4c0.8-1.6,1.9-3,3.3-4.1
			s3.1-2,5-2.6c1.9-0.6,4-0.9,6.2-0.9c2.5,0,4.6,0.2,6.2,0.6c1.6,0.4,3,0.8,4,1.2v-1.2c0-2-0.8-3.7-2.4-5.1c-1.6-1.3-3.6-2-6-2
			c-3.6,0-6.6,1.5-9,4.5l-7.4-5.1c4.1-5.1,9.6-7.7,16.7-7.7c6,0,10.5,1.4,13.6,4.2c3.1,2.8,4.7,6.9,4.7,12.4v23h-10.1V371.5z
			 M257.1,360c-1.2-0.6-2.4-1-3.7-1.4c-1.3-0.3-2.7-0.5-4.2-0.5c-2.5,0-4.3,0.5-5.7,1.6c-1.3,1.1-2,2.4-2,4s0.6,2.8,1.9,3.8
			s2.8,1.4,4.4,1.4c1.4,0,2.6-0.2,3.8-0.7c1.1-0.5,2.1-1.1,2.9-2c0.8-0.8,1.4-1.8,1.9-2.8C256.9,362.3,257.1,361.2,257.1,360z"/>
		<path class="st0" d="M275.3,337.2h9.6v5h0.6c1.2-1.9,2.8-3.4,4.9-4.5c2.1-1.1,4.4-1.7,6.9-1.7c2.9,0,5.4,0.7,7.4,2
			c2,1.4,3.4,3,4.2,5c1.2-1.9,2.9-3.6,5.1-5c2.2-1.4,4.9-2.1,8-2.1c2.4,0,4.4,0.4,6.1,1.1c1.7,0.8,3.1,1.8,4.3,3.2
			c1.1,1.4,2,3,2.5,4.9c0.6,1.9,0.9,4,0.9,6.2v24.2h-10.3v-22.3c0-5.2-2.1-7.8-6.4-7.8c-1.4,0-2.6,0.3-3.6,0.9
			c-1,0.6-1.9,1.4-2.6,2.4c-0.7,1-1.3,2.2-1.6,3.6c-0.4,1.4-0.6,2.9-0.6,4.5v18.7h-10.3v-22.3c0-5.2-2.2-7.8-6.7-7.8
			c-1.3,0-2.5,0.3-3.4,0.9c-1,0.6-1.8,1.4-2.5,2.4c-0.7,1-1.2,2.2-1.6,3.6c-0.4,1.4-0.5,2.9-0.5,4.5v18.7h-10.3V337.2z"/>
		<path class="st0" d="M344,337.2h9.6v4.6h0.6c0.9-1.6,2.4-3,4.4-4.2c2-1.1,4.4-1.7,7.4-1.7c2.5,0,4.8,0.5,7,1.5
			c2.2,1,4.2,2.4,5.9,4.2c1.7,1.8,3,4,4,6.5c1,2.5,1.5,5.3,1.5,8.2s-0.5,5.7-1.5,8.2c-1,2.5-2.3,4.7-4,6.5c-1.7,1.8-3.7,3.2-5.9,4.2
			c-2.2,1-4.6,1.5-7,1.5c-2.9,0-5.4-0.6-7.4-1.7c-2-1.1-3.4-2.5-4.4-4.2h-0.6l0.6,5.5v16.1H344V337.2z M363.9,367.4
			c1.4,0,2.7-0.3,3.9-0.8c1.2-0.5,2.3-1.3,3.3-2.2c0.9-0.9,1.7-2.1,2.3-3.4c0.6-1.4,0.9-2.9,0.9-4.5c0-1.7-0.3-3.2-0.9-4.5
			c-0.6-1.4-1.3-2.5-2.3-3.4c-0.9-0.9-2-1.7-3.3-2.2c-1.2-0.5-2.5-0.8-3.9-0.8c-1.4,0-2.7,0.2-3.9,0.7c-1.2,0.5-2.3,1.2-3.3,2.2
			c-0.9,0.9-1.7,2.1-2.3,3.4c-0.6,1.4-0.9,2.9-0.9,4.6c0,1.7,0.3,3.3,0.9,4.6c0.6,1.4,1.3,2.5,2.3,3.4c0.9,0.9,2,1.7,3.3,2.2
			C361.2,367.1,362.5,367.4,363.9,367.4z"/>
		<path class="st0" d="M417.2,370.6h-0.6c-1.2,1.9-2.8,3.5-4.9,4.6s-4.4,1.7-7,1.7c-4.9,0-8.5-1.5-10.9-4.5c-2.4-3-3.6-6.9-3.6-11.9
			v-23.3h10.3v22c0,2.8,0.6,4.8,1.8,6.2c1.2,1.3,3,2,5.4,2c1.4,0,2.7-0.3,3.7-0.9c1.1-0.6,2-1.4,2.7-2.4c0.8-1,1.3-2.2,1.7-3.6
			c0.4-1.4,0.6-2.9,0.6-4.4v-18.8h10.3v38.4h-9.6V370.6z"/>
		<path class="st0" d="M450.4,376.9c-2.5,0-4.7-0.3-6.7-0.9c-2-0.6-3.7-1.5-5.1-2.5c-1.4-1-2.7-2.2-3.6-3.5c-1-1.3-1.8-2.7-2.3-4
			l9.2-3.9c0.9,2,2.1,3.5,3.6,4.4s3.1,1.4,5,1.4c1.9,0,3.4-0.3,4.5-1c1.1-0.7,1.6-1.5,1.6-2.4c0-1-0.5-1.9-1.4-2.5
			c-0.9-0.7-2.5-1.2-4.7-1.8l-5.4-1.2c-1.2-0.3-2.4-0.7-3.7-1.3c-1.3-0.6-2.4-1.3-3.5-2.2c-1-0.9-1.9-2-2.6-3.2
			c-0.7-1.3-1-2.7-1-4.4c0-1.9,0.4-3.6,1.2-5c0.8-1.5,1.9-2.7,3.3-3.7s3.1-1.8,5-2.4s4-0.8,6.2-0.8c3.7,0,6.9,0.7,9.8,2.2
			c2.9,1.4,5,3.7,6.3,6.9l-8.9,3.6c-0.7-1.5-1.8-2.6-3.2-3.3c-1.4-0.7-2.8-1-4.2-1c-1.5,0-2.7,0.3-3.8,0.9c-1.1,0.6-1.6,1.4-1.6,2.3
			c0,0.9,0.5,1.6,1.4,2.1c0.9,0.5,2.2,1,3.7,1.4l5.9,1.4c3.9,0.9,6.8,2.4,8.7,4.5c1.9,2.1,2.9,4.5,2.9,7.3c0,1.7-0.4,3.3-1.2,4.8
			c-0.8,1.5-1.9,2.9-3.3,4c-1.4,1.2-3.2,2.1-5.2,2.8C455.1,376.5,452.9,376.9,450.4,376.9z"/>
	</g>
</g>
</svg>
